<mxfile host="65bd71144e">
    <diagram id="uEGG-mL67KIWTM4sRiss" name="第 1 页">
        <mxGraphModel dx="671" dy="288" grid="0" gridSize="10" guides="1" tooltips="1" connect="1" arrows="1" fold="1" page="1" pageScale="1" pageWidth="827" pageHeight="1169" background="#4D4D4D" math="0" shadow="0">
            <root>
                <mxCell id="0"/>
                <mxCell id="1" parent="0"/>
                <mxCell id="2" value="" style="rounded=0;whiteSpace=wrap;html=1;" vertex="1" parent="1">
                    <mxGeometry x="190" y="140" width="323" height="288" as="geometry"/>
                </mxCell>
                <mxCell id="5" value="left:0&lt;br&gt;top:0" style="rounded=0;whiteSpace=wrap;html=1;fillColor=#60a917;fontColor=#ffffff;strokeColor=#2D7600;" vertex="1" parent="1">
                    <mxGeometry x="203" y="155" width="91" height="77" as="geometry"/>
                </mxCell>
                <mxCell id="6" value="left:0&lt;br&gt;top:166" style="rounded=0;whiteSpace=wrap;html=1;fillColor=#60a917;fontColor=#ffffff;strokeColor=#2D7600;" vertex="1" parent="1">
                    <mxGeometry x="203" y="246" width="91" height="77" as="geometry"/>
                </mxCell>
                <mxCell id="7" value="left:0&lt;br&gt;top:332" style="rounded=0;whiteSpace=wrap;html=1;fillColor=#60a917;fontColor=#ffffff;strokeColor=#2D7600;" vertex="1" parent="1">
                    <mxGeometry x="203" y="337" width="91" height="77" as="geometry"/>
                </mxCell>
                <mxCell id="8" value="left:166&lt;br&gt;top:332" style="rounded=0;whiteSpace=wrap;html=1;fillColor=#60a917;fontColor=#ffffff;strokeColor=#2D7600;" vertex="1" parent="1">
                    <mxGeometry x="307" y="337" width="91" height="77" as="geometry"/>
                </mxCell>
                <mxCell id="9" value="left:166&lt;br&gt;top:166" style="rounded=0;whiteSpace=wrap;html=1;fillColor=#60a917;fontColor=#ffffff;strokeColor=#2D7600;" vertex="1" parent="1">
                    <mxGeometry x="307" y="246" width="91" height="77" as="geometry"/>
                </mxCell>
                <mxCell id="10" value="left:166&lt;br&gt;top:0" style="rounded=0;whiteSpace=wrap;html=1;fillColor=#60a917;fontColor=#ffffff;strokeColor=#2D7600;" vertex="1" parent="1">
                    <mxGeometry x="307" y="155" width="91" height="77" as="geometry"/>
                </mxCell>
                <mxCell id="11" value="left:332&lt;br&gt;top:332" style="rounded=0;whiteSpace=wrap;html=1;fillColor=#60a917;fontColor=#ffffff;strokeColor=#2D7600;" vertex="1" parent="1">
                    <mxGeometry x="409" y="337" width="91" height="77" as="geometry"/>
                </mxCell>
                <mxCell id="12" value="left:332&lt;br&gt;top:166" style="rounded=0;whiteSpace=wrap;html=1;fillColor=#60a917;fontColor=#ffffff;strokeColor=#2D7600;" vertex="1" parent="1">
                    <mxGeometry x="409" y="246" width="91" height="77" as="geometry"/>
                </mxCell>
                <mxCell id="13" value="left:332&lt;br&gt;top:0" style="rounded=0;whiteSpace=wrap;html=1;fillColor=#60a917;fontColor=#ffffff;strokeColor=#2D7600;" vertex="1" parent="1">
                    <mxGeometry x="409" y="155" width="91" height="77" as="geometry"/>
                </mxCell>
                <mxCell id="14" value="500px" style="text;html=1;align=center;verticalAlign=middle;resizable=0;points=[];autosize=1;strokeColor=#005700;fillColor=#008a00;fontColor=#ffffff;" vertex="1" parent="1">
                    <mxGeometry x="319" y="106" width="51" height="26" as="geometry"/>
                </mxCell>
                <mxCell id="15" value="500px" style="text;html=1;align=center;verticalAlign=middle;resizable=0;points=[];autosize=1;strokeColor=#005700;fillColor=#008a00;fontColor=#ffffff;" vertex="1" parent="1">
                    <mxGeometry x="133" y="271.5" width="51" height="26" as="geometry"/>
                </mxCell>
            </root>
        </mxGraphModel>
    </diagram>
</mxfile>